<?xml version="1.0" standalone="no"?><!DOCTYPE svg PUBLIC "-//W3C//DTD SVG 1.1//EN" "http://www.w3.org/Graphics/SVG/1.1/DTD/svg11.dtd"><svg t="1587655154097" class="icon" viewBox="0 0 1024 1024" version="1.1" xmlns="http://www.w3.org/2000/svg" p-id="8786" xmlns:xlink="http://www.w3.org/1999/xlink" width="32" height="32"><defs><style type="text/css"></style></defs><path d="M512-4.64112427h287.01049924v287.01049924A286.95703191 286.95703191 0 0 1 512 569.43438991a286.95703191 286.95703191 0 0 1-287.01049924-287.06501494A286.95703191 286.95703191 0 0 1 512-4.64112427zM253.70669572 626.86877983h516.64112427a200.91343006 200.91343006 0 0 1 200.85891436 200.85891437v28.71719496a172.19623511 172.19623511 0 0 1-172.19623511 172.19623511H224.98950076a172.19623511 172.19623511 0 0 1-172.19623511-172.19623511v-28.71719496a200.75197971 200.75197971 0 0 1 200.91343007-200.85891437z" fill="#bfbfbf" p-id="8787"></path></svg>